<?xml version="1.0" encoding="UTF-8" standalone="no"?>
<svg
   xmlns:dc="http://purl.org/dc/elements/1.1/"
   xmlns:cc="http://creativecommons.org/ns#"
   xmlns:rdf="http://www.w3.org/1999/02/22-rdf-syntax-ns#"
   xmlns:svg="http://www.w3.org/2000/svg"
   xmlns="http://www.w3.org/2000/svg"
   xmlns:sodipodi="http://sodipodi.sourceforge.net/DTD/sodipodi-0.dtd"
   xmlns:inkscape="http://www.inkscape.org/namespaces/inkscape"
   width="13.198832mm"
   height="13.205453mm"
   viewBox="0 0 13.198832 13.205453"
   version="1.1"
   id="svg2793"
   inkscape:version="1.0.1 (0767f8302a, 2020-10-17)"
   sodipodi:docname="instagram.svg">
  <defs
     id="defs2787" />
  <sodipodi:namedview
     inkscape:window-maximized="1"
     inkscape:window-y="19"
     inkscape:window-x="0"
     inkscape:window-height="720"
     inkscape:window-width="1366"
     id="base"
     pagecolor="#818181"
     bordercolor="#666666"
     borderopacity="1.0"
     inkscape:pageopacity="0"
     inkscape:pageshadow="2"
     inkscape:zoom="6.2015625"
     inkscape:cx="39.583925"
     inkscape:cy="15.336802"
     inkscape:document-units="mm"
     inkscape:current-layer="layer1"
     inkscape:document-rotation="0"
     showgrid="false"
     inkscape:pagecheckerboard="true"
     inkscape:snap-page="true"
     fit-margin-top="0"
     fit-margin-left="0"
     fit-margin-right="0"
     fit-margin-bottom="0" />
  <metadata
     id="metadata2790">
    <rdf:RDF>
      <cc:Work
         rdf:about="">
        <dc:format>image/svg+xml</dc:format>
        <dc:type
           rdf:resource="http://purl.org/dc/dcmitype/StillImage" />
        <dc:title />
      </cc:Work>
    </rdf:RDF>
  </metadata>
  <g
     inkscape:label="Layer 1"
     inkscape:groupmode="layer"
     id="layer1"
     transform="translate(-176.68504,-139.19612)">
    <path
       id="path8773"
       style="fill:#1a1a1a;stroke-width:0.06757741"
       d="m 186.05279,143.78561 c 0.15623,-0.1414 0.16288,-0.54365 0.0117,-0.71067 -0.14139,-0.15623 -0.54365,-0.16288 -0.71066,-0.0118 -0.15625,0.1414 -0.16288,0.54366 -0.0118,0.71067 0.14139,0.15624 0.54364,0.16288 0.71066,0.0117 z m -3.42431,3.49585 c -0.38022,-0.1694 -0.74441,-0.59924 -0.88464,-1.04407 -0.10147,-0.32199 -0.10656,-0.42556 -0.0359,-0.74102 0.14434,-0.64498 0.62496,-1.12516 1.27088,-1.26971 0.95295,-0.21326 1.91483,0.58395 1.91293,1.58545 -7.7e-4,0.39451 -0.22253,0.93605 -0.48033,1.17281 -0.442,0.40593 -1.23964,0.53859 -1.78292,0.29654 z m 1.20224,0.70529 c 1.16198,-0.30266 1.91785,-1.47242 1.67298,-2.58906 -0.1651,-0.75286 -0.5677,-1.26605 -1.28708,-1.64058 -0.25143,-0.13091 -0.40943,-0.1588 -0.9123,-0.16104 -0.53097,-0.002 -0.65659,0.021 -0.98943,0.1845 -0.4448,0.21843 -0.88776,0.67114 -1.09459,1.11867 -0.21421,0.4635 -0.2051,1.40926 0.0176,1.83439 0.24578,0.46902 0.40938,0.66047 0.78612,0.91994 0.58477,0.40275 1.14376,0.50583 1.80662,0.33318 z m -2.85781,1.45853 c -0.31437,-0.0669 -0.74199,-0.29353 -0.9259,-0.49069 -0.0818,-0.0877 -0.21865,-0.31113 -0.30409,-0.49651 -0.15242,-0.3307 -0.15535,-0.38028 -0.15535,-2.63468 0,-2.5475 0.0113,-2.6296 0.4259,-3.08849 0.39438,-0.43653 0.66902,-0.53705 1.66796,-0.61047 1.18944,-0.0874 3.68021,-0.0187 4.12327,0.11381 0.42012,0.12563 0.80456,0.43707 0.99129,0.80309 0.19959,0.39122 0.28218,1.65455 0.23183,3.5462 -0.0453,1.70105 -0.10321,1.94581 -0.56843,2.39907 -0.4892,0.47668 -0.52968,0.48333 -3.01991,0.49688 -1.22652,0.007 -2.33649,-0.0105 -2.46657,-0.0382 z m 4.24617,0.66936 c 1.09612,-0.0988 1.74436,-0.47443 2.12827,-1.23319 0.27093,-0.5355 0.31489,-0.96719 0.31532,-3.09632 5.3e-4,-2.51635 -0.0686,-2.87723 -0.67758,-3.5379 -0.62073,-0.67341 -1.11925,-0.77891 -3.68077,-0.77891 -2.54746,0 -3.02783,0.0968 -3.67164,0.73953 -0.47876,0.478 -0.60841,0.83804 -0.69638,1.93388 -0.0854,1.06398 -0.0386,3.49213 0.0793,4.11446 0.14798,0.78097 0.71573,1.43868 1.48425,1.71945 0.49695,0.18154 3.32364,0.2648 4.71922,0.139 z m -3.02787,2.22048 c -2.55152,-0.42284 -4.65631,-2.35852 -5.31442,-4.88743 -0.29035,-1.11573 -0.24828,-2.52435 0.10798,-3.61445 0.35919,-1.09916 0.80609,-1.83525 1.61363,-2.65781 2.75451,-2.80574 7.27902,-2.60189 9.80673,0.44182 0.49353,0.59428 1.09613,1.77033 1.28954,2.51672 0.27777,1.07192 0.24698,2.56116 -0.0745,3.60508 -0.30417,0.98762 -1.03957,2.20868 -1.70024,2.82308 -1.00138,0.93124 -2.29014,1.57366 -3.56809,1.77861 -0.52051,0.0835 -1.64052,0.0806 -2.16056,-0.006 z"
       inkscape:connector-curvature="0" />
  </g>
  <inkscape:templateinfo>
    <inkscape:name>Inkscape Default</inkscape:name>
    <inkscape:date>2020-05-11</inkscape:date>
  </inkscape:templateinfo>
  <inkscape:templateinfo>
    <inkscape:name>inkscape</inkscape:name>
    <inkscape:date>2020-05-25</inkscape:date>
  </inkscape:templateinfo>
  <inkscape:templateinfo>
    <inkscape:name>inkscape</inkscape:name>
    <inkscape:date>2020-06-30</inkscape:date>
  </inkscape:templateinfo>
</svg>
