<?xml version="1.0" encoding="UTF-8" standalone="no"?>
<svg
   xmlns:dc="http://purl.org/dc/elements/1.1/"
   xmlns:cc="http://creativecommons.org/ns#"
   xmlns:rdf="http://www.w3.org/1999/02/22-rdf-syntax-ns#"
   xmlns:svg="http://www.w3.org/2000/svg"
   xmlns="http://www.w3.org/2000/svg"
   xmlns:sodipodi="http://sodipodi.sourceforge.net/DTD/sodipodi-0.dtd"
   xmlns:inkscape="http://www.inkscape.org/namespaces/inkscape"
   width="13.206504mm"
   height="13.222808mm"
   viewBox="0 0 13.206504 13.222808"
   version="1.1"
   id="svg2793"
   inkscape:version="1.0.1 (0767f8302a, 2020-10-17)"
   sodipodi:docname="plus.svg">
  <defs
     id="defs2787" />
  <sodipodi:namedview
     inkscape:window-maximized="1"
     inkscape:window-y="19"
     inkscape:window-x="0"
     inkscape:window-height="720"
     inkscape:window-width="1366"
     id="base"
     pagecolor="#818181"
     bordercolor="#666666"
     borderopacity="1.0"
     inkscape:pageopacity="0"
     inkscape:pageshadow="2"
     inkscape:zoom="1.5503906"
     inkscape:cx="61.101155"
     inkscape:cy="33.233775"
     inkscape:document-units="mm"
     inkscape:current-layer="layer1"
     inkscape:document-rotation="0"
     showgrid="false"
     inkscape:pagecheckerboard="true"
     inkscape:snap-page="true"
     fit-margin-top="0"
     fit-margin-left="0"
     fit-margin-right="0"
     fit-margin-bottom="0" />
  <metadata
     id="metadata2790">
    <rdf:RDF>
      <cc:Work
         rdf:about="">
        <dc:format>image/svg+xml</dc:format>
        <dc:type
           rdf:resource="http://purl.org/dc/dcmitype/StillImage" />
        <dc:title />
      </cc:Work>
    </rdf:RDF>
  </metadata>
  <g
     inkscape:label="Layer 1"
     inkscape:groupmode="layer"
     id="layer1"
     transform="translate(-91.353243,-124.85236)">
    <path
       id="path8727"
       style="fill:#ffffff;stroke-width:0.06757741"
       d="m 100.91339,132.10942 v -0.37168 h 0.37168 0.37167 v -0.2703 -0.27032 h -0.37167 -0.37168 v -0.37167 -0.37168 h -0.27032 -0.2703 v 0.37168 0.37167 h -0.37168 -0.371667 v 0.27032 0.2703 h 0.371667 0.37168 v 0.37168 0.37168 h 0.2703 0.27032 z m -3.093577,1.63355 c 0.81592,-0.36191 1.26899,-1.09081 1.26899,-2.04155 v -0.5043 h -1.1826 -1.18261 v 0.40547 0.40546 h 0.74335 c 0.40885,0 0.74335,0.0162 0.74335,0.036 0,0.14844 -0.22445,0.50973 -0.42733,0.68787 -0.74508,0.65418 -2.02967,0.37227 -2.472555,-0.54261 -0.182938,-0.3779 -0.189307,-1.04841 -0.01363,-1.43517 0.16123,-0.35497 0.608795,-0.7349 0.992155,-0.84223 0.46538,-0.1303 1.00884,-0.0487 1.36964,0.2056 l 0.29976,0.21129 0.29493,-0.28945 c 0.16221,-0.1592 0.29493,-0.31207 0.29493,-0.33971 0,-0.10661 -0.64742,-0.4886 -1.02987,-0.60763 -1.26417,-0.39346 -2.533811,0.19009 -3.105453,1.42731 -0.195934,0.42407 -0.204408,1.38581 -0.01619,1.83854 0.315373,0.75861 0.907464,1.2987 1.651163,1.50614 0.5319,0.14836 1.27986,0.0973 1.77198,-0.12099 z m -1.14886,4.2101 c -1.412199,-0.30627 -2.462517,-0.87528 -3.43757,-1.86232 -0.603053,-0.61047 -1.194416,-1.54145 -1.498748,-2.35947 -0.430317,-1.15666 -0.502603,-2.66908 -0.185719,-3.8857 0.561486,-2.15574 2.086273,-3.84209 4.157467,-4.59798 1.71601,-0.62627 3.57659,-0.50549 5.274587,0.34241 1.46069,0.7294 2.68585,2.14217 3.22159,3.71495 0.2729,0.80114 0.3595,1.33371 0.35714,2.19626 -0.005,1.8294 -0.62662,3.29938 -1.95753,4.62906 -0.74457,0.74387 -1.28699,1.10771 -2.2136,1.4848 -1.107277,0.45061 -2.580647,0.58456 -3.717617,0.33799 z"
       inkscape:connector-curvature="0" />
  </g>
  <inkscape:templateinfo>
    <inkscape:name>Inkscape Default</inkscape:name>
    <inkscape:date>2020-05-11</inkscape:date>
  </inkscape:templateinfo>
  <inkscape:templateinfo>
    <inkscape:name>inkscape</inkscape:name>
    <inkscape:date>2020-05-25</inkscape:date>
  </inkscape:templateinfo>
  <inkscape:templateinfo>
    <inkscape:name>inkscape</inkscape:name>
    <inkscape:date>2020-06-30</inkscape:date>
  </inkscape:templateinfo>
</svg>
