<?xml version="1.0" encoding="UTF-8" standalone="no"?>
<svg
   xmlns:dc="http://purl.org/dc/elements/1.1/"
   xmlns:cc="http://creativecommons.org/ns#"
   xmlns:rdf="http://www.w3.org/1999/02/22-rdf-syntax-ns#"
   xmlns:svg="http://www.w3.org/2000/svg"
   xmlns="http://www.w3.org/2000/svg"
   xmlns:sodipodi="http://sodipodi.sourceforge.net/DTD/sodipodi-0.dtd"
   xmlns:inkscape="http://www.inkscape.org/namespaces/inkscape"
   width="13.198832mm"
   height="13.205453mm"
   viewBox="0 0 13.198832 13.205453"
   version="1.1"
   id="svg2793"
   inkscape:version="1.0.1 (0767f8302a, 2020-10-17)"
   sodipodi:docname="telegram.svg">
  <defs
     id="defs2787" />
  <sodipodi:namedview
     inkscape:window-maximized="1"
     inkscape:window-y="19"
     inkscape:window-x="0"
     inkscape:window-height="720"
     inkscape:window-width="1366"
     id="base"
     pagecolor="#818181"
     bordercolor="#666666"
     borderopacity="1.0"
     inkscape:pageopacity="0"
     inkscape:pageshadow="2"
     inkscape:zoom="6.2015625"
     inkscape:cx="48.328585"
     inkscape:cy="25.637376"
     inkscape:document-units="mm"
     inkscape:current-layer="layer1"
     inkscape:document-rotation="0"
     showgrid="false"
     inkscape:pagecheckerboard="true"
     inkscape:snap-page="true"
     fit-margin-top="0"
     fit-margin-left="0"
     fit-margin-right="0"
     fit-margin-bottom="0"
     inkscape:snap-global="false" />
  <metadata
     id="metadata2790">
    <rdf:RDF>
      <cc:Work
         rdf:about="">
        <dc:format>image/svg+xml</dc:format>
        <dc:type
           rdf:resource="http://purl.org/dc/dcmitype/StillImage" />
        <dc:title />
      </cc:Work>
    </rdf:RDF>
  </metadata>
  <g
     inkscape:label="Layer 1"
     inkscape:groupmode="layer"
     id="layer1"
     transform="translate(-176.68504,-139.19612)">
    <path
       style="fill:#1a1a1a;fill-opacity:1;stroke:none;stroke-width:0.328323"
       id="path1148"
       d="m 189.85093,145.79885 a 6.5664703,6.5664703 0 1 1 -13.13294,0 6.5664703,6.5664703 0 1 1 13.13294,0 z"
       inkscape:connector-curvature="0" />
    <path
       style="fill:#808080;fill-opacity:1;stroke:none;stroke-width:0.0694983"
       id="path1150"
       d="m 181.7555,149.46705 c -0.27018,0 -0.22427,-0.10205 -0.31746,-0.35928 l -0.7951,-2.61501 4.92083,-3.07443 0.57425,0.1502 -0.47707,1.30752 z"
       inkscape:connector-curvature="0" />
    <path
       style="fill:#b3b3b3;fill-opacity:1;stroke:none;stroke-width:0.0694983"
       id="path1152"
       d="m 181.7555,149.46705 c 0.20849,0 0.30092,-0.095 0.41699,-0.2085 0.17919,-0.17515 2.50193,-2.43244 2.50193,-2.43244 l -1.42276,-0.34437 -1.32046,0.83399 -0.1757,2.08182 z"
       inkscape:connector-curvature="0" />
    <path
       style="fill:#ffffff;fill-opacity:1;stroke:none;stroke-width:0.0694983"
       id="path1154"
       d="m 181.89745,147.34087 3.36094,2.48311 c 0.38353,0.21158 0.66035,0.10205 0.75588,-0.35609 l 1.36808,-6.44685 c 0.14013,-0.56157 -0.21406,-0.81628 -0.58096,-0.64969 l -8.03359,3.09849 c -0.54833,0.21993 -0.54515,0.52586 -0.1,0.66218 l 2.0615,0.64343 4.77267,-3.01103 c 0.2253,-0.1367 0.43208,-0.0632 0.26237,0.0874 z"
       inkscape:connector-curvature="0" />
  </g>
  <inkscape:templateinfo>
    <inkscape:name>Inkscape Default</inkscape:name>
    <inkscape:date>2020-05-11</inkscape:date>
  </inkscape:templateinfo>
  <inkscape:templateinfo>
    <inkscape:name>inkscape</inkscape:name>
    <inkscape:date>2020-05-25</inkscape:date>
  </inkscape:templateinfo>
  <inkscape:templateinfo>
    <inkscape:name>inkscape</inkscape:name>
    <inkscape:date>2020-06-30</inkscape:date>
  </inkscape:templateinfo>
</svg>
