<?xml version="1.0" encoding="UTF-8" standalone="no"?>
<svg
   xmlns:dc="http://purl.org/dc/elements/1.1/"
   xmlns:cc="http://creativecommons.org/ns#"
   xmlns:rdf="http://www.w3.org/1999/02/22-rdf-syntax-ns#"
   xmlns:svg="http://www.w3.org/2000/svg"
   xmlns="http://www.w3.org/2000/svg"
   xmlns:sodipodi="http://sodipodi.sourceforge.net/DTD/sodipodi-0.dtd"
   xmlns:inkscape="http://www.inkscape.org/namespaces/inkscape"
   width="13.223486mm"
   height="13.196696mm"
   viewBox="0 0 13.223486 13.196696"
   version="1.1"
   id="svg2793"
   inkscape:version="1.0.1 (0767f8302a, 2020-10-17)"
   sodipodi:docname="wa.svg">
  <defs
     id="defs2787" />
  <sodipodi:namedview
     inkscape:window-maximized="1"
     inkscape:window-y="19"
     inkscape:window-x="0"
     inkscape:window-height="720"
     inkscape:window-width="1366"
     id="base"
     pagecolor="#818181"
     bordercolor="#666666"
     borderopacity="1.0"
     inkscape:pageopacity="0"
     inkscape:pageshadow="2"
     inkscape:zoom="0.77519531"
     inkscape:cx="8.69888"
     inkscape:cy="56.256649"
     inkscape:document-units="mm"
     inkscape:current-layer="layer1"
     inkscape:document-rotation="0"
     showgrid="false"
     inkscape:pagecheckerboard="true"
     inkscape:snap-page="true"
     fit-margin-top="0"
     fit-margin-left="0"
     fit-margin-right="0"
     fit-margin-bottom="0" />
  <metadata
     id="metadata2790">
    <rdf:RDF>
      <cc:Work
         rdf:about="">
        <dc:format>image/svg+xml</dc:format>
        <dc:type
           rdf:resource="http://purl.org/dc/dcmitype/StillImage" />
        <dc:title />
      </cc:Work>
    </rdf:RDF>
  </metadata>
  <g
     inkscape:label="Layer 1"
     inkscape:groupmode="layer"
     id="layer1"
     transform="translate(-125.13463,-170.25989)">
    <path
       id="path8759"
       style="fill:#ffffff;stroke-width:0.06757741"
       d="m 133.24456,178.33259 c 0.50727,-0.17694 0.6105,-0.50475 0.26712,-0.84814 -0.25591,-0.2559 -0.55268,-0.2644 -0.79433,-0.0227 -0.28637,0.28637 -0.56204,0.18888 -1.14879,-0.40628 -0.58623,-0.59462 -0.6796,-0.8616 -0.39935,-1.14186 0.31613,-0.31613 0.14851,-0.85995 -0.29511,-0.95738 -0.3079,-0.0676 -0.46032,0.0591 -0.58437,0.4858 -0.13298,0.45745 -0.0985,0.92898 0.10192,1.39332 0.15283,0.35409 0.77236,1.04689 1.13856,1.27321 0.51765,0.31993 1.18827,0.40758 1.71435,0.22407 z m -2.17087,1.12301 c -0.20442,-0.0669 -0.46932,-0.1792 -0.58866,-0.2495 l -0.21698,-0.12781 -0.61503,0.21819 c -0.7022,0.24911 -0.67178,0.29442 -0.34213,-0.50969 l 0.18548,-0.45242 -0.20811,-0.43926 c -0.19319,-0.40776 -0.2081,-0.49253 -0.2081,-1.1826 0,-0.69539 0.0139,-0.77267 0.21523,-1.1977 0.29911,-0.63142 0.74037,-1.08095 1.36321,-1.38877 0.49519,-0.24474 0.53034,-0.25178 1.2563,-0.25178 0.69702,0 0.77673,0.0142 1.19445,0.21207 2.08345,0.98715 2.2617,3.8264 0.31797,5.06482 -0.65927,0.42005 -1.62069,0.54441 -2.35363,0.30445 z m -0.61248,0.42788 c 1.06572,0.4142 2.04606,0.39138 3.02207,-0.0703 0.47381,-0.22414 1.13801,-0.84575 1.44059,-1.34821 0.92928,-1.54315 0.44568,-3.65096 -1.06605,-4.64644 -0.66075,-0.43511 -1.16064,-0.5862 -1.93941,-0.5862 -0.99825,0 -1.77845,0.31922 -2.46973,1.01051 -0.9314,0.93139 -1.26761,2.36107 -0.83506,3.55096 0.0946,0.26017 0.17184,0.51866 0.17169,0.57441 -1.4e-4,0.0558 -0.15434,0.53882 -0.34265,1.0735 -0.18831,0.53467 -0.34238,0.99474 -0.34238,1.02238 0,0.0276 0.46183,-0.11864 1.02628,-0.32508 l 1.02628,-0.37532 z m 0.56346,3.54291 c -1.6697,-0.14511 -3.44509,-1.14299 -4.49558,-2.52678 -0.71801,-0.94582 -1.1035,-1.82498 -1.29905,-2.96266 -0.23873,-1.38885 -0.0291,-2.75165 0.62478,-4.06269 0.33426,-0.67013 0.57577,-1.00599 1.15962,-1.61264 1.2766,-1.32643 2.87399,-2.00173 4.73502,-2.00173 1.86798,0 3.47097,0.68132 4.74813,2.01811 0.61926,0.64817 0.86305,1.00099 1.23675,1.78989 1.18124,2.49362 0.65269,5.49702 -1.31337,7.46308 -1.42479,1.42479 -3.28667,2.07876 -5.3963,1.89542 z"
       inkscape:connector-curvature="0" />
  </g>
  <inkscape:templateinfo>
    <inkscape:name>Inkscape Default</inkscape:name>
    <inkscape:date>2020-05-11</inkscape:date>
  </inkscape:templateinfo>
  <inkscape:templateinfo>
    <inkscape:name>inkscape</inkscape:name>
    <inkscape:date>2020-05-25</inkscape:date>
  </inkscape:templateinfo>
  <inkscape:templateinfo>
    <inkscape:name>inkscape</inkscape:name>
    <inkscape:date>2020-06-30</inkscape:date>
  </inkscape:templateinfo>
</svg>
