<?xml version="1.0" encoding="UTF-8" standalone="no"?>
<svg
   xmlns:dc="http://purl.org/dc/elements/1.1/"
   xmlns:cc="http://creativecommons.org/ns#"
   xmlns:rdf="http://www.w3.org/1999/02/22-rdf-syntax-ns#"
   xmlns:svg="http://www.w3.org/2000/svg"
   xmlns="http://www.w3.org/2000/svg"
   xmlns:xlink="http://www.w3.org/1999/xlink"
   xmlns:sodipodi="http://sodipodi.sourceforge.net/DTD/sodipodi-0.dtd"
   xmlns:inkscape="http://www.inkscape.org/namespaces/inkscape"
   id="b7798a4d-5163-44df-883c-b45df1683271"
   data-name="Layer 1"
   width="324.10303"
   height="324.10303"
   viewBox="0 0 421.33394 421.33394"
   version="1.1"
   sodipodi:docname="tentang-boks-fisika.svg"
   inkscape:version="1.0.1 (0767f8302a, 2020-10-17)">
  <metadata
     id="metadata73">
    <rdf:RDF>
      <cc:Work
         rdf:about="">
        <dc:format>image/svg+xml</dc:format>
        <dc:type
           rdf:resource="http://purl.org/dc/dcmitype/StillImage" />
        <dc:title />
      </cc:Work>
    </rdf:RDF>
  </metadata>
  <defs
     id="defs71">
    <linearGradient
       id="de77dbfb-dd49-4fbc-923c-7946454dd32b"
       x1="366.37"
       y1="536.32001"
       x2="608.5"
       y2="536.32001"
       gradientUnits="userSpaceOnUse">
      <stop
         offset="0"
         stop-color="gray"
         stop-opacity="0.25"
         id="stop2" />
      <stop
         offset="0.54"
         stop-color="gray"
         stop-opacity="0.12"
         id="stop4" />
      <stop
         offset="1"
         stop-color="gray"
         stop-opacity="0.1"
         id="stop6" />
    </linearGradient>
    <linearGradient
       id="6bfe4e4d-6140-4dd1-aeb6-1c24ce52378d"
       x1="124.23"
       y1="536.32001"
       x2="366.37"
       y2="536.32001"
       xlink:href="#de77dbfb-dd49-4fbc-923c-7946454dd32b" />
    <linearGradient
       id="eefef033-b9dd-454d-be9c-2768628c2c1b"
       x1="366.37"
       y1="285.31"
       x2="734"
       y2="285.31"
       xlink:href="#de77dbfb-dd49-4fbc-923c-7946454dd32b" />
    <linearGradient
       id="56c8a114-3a82-4d1f-807f-287066e4913e"
       x1="0"
       y1="285.31"
       x2="366.37"
       y2="285.31"
       xlink:href="#de77dbfb-dd49-4fbc-923c-7946454dd32b" />
    <linearGradient
       id="d46a1a66-2ac6-4fbc-9777-fd8606b62c04"
       x1="276.64001"
       y1="421.19"
       x2="276.64001"
       y2="255.38"
       xlink:href="#de77dbfb-dd49-4fbc-923c-7946454dd32b" />
    <linearGradient
       id="81b747dc-c51a-4f4d-a150-34ccfb0c2b19"
       x1="188.97"
       y1="337.56"
       x2="364.54999"
       y2="337.56"
       xlink:href="#de77dbfb-dd49-4fbc-923c-7946454dd32b" />
    <linearGradient
       id="94dacd35-ade1-481d-ab7d-e71442837947"
       x1="202.5"
       y1="296.63"
       x2="232.11"
       y2="296.63"
       xlink:href="#de77dbfb-dd49-4fbc-923c-7946454dd32b" />
    <linearGradient
       id="5f9514a3-5a07-41ce-8d35-51c596d713f8"
       x1="240.99001"
       y1="284.79001"
       x2="358.70001"
       y2="284.79001"
       xlink:href="#de77dbfb-dd49-4fbc-923c-7946454dd32b" />
    <linearGradient
       id="5f23502f-63c8-483a-bbd9-acad51c7384b"
       x1="240.99001"
       y1="293.67001"
       x2="358.70001"
       y2="293.67001"
       xlink:href="#de77dbfb-dd49-4fbc-923c-7946454dd32b" />
    <linearGradient
       id="1d6905ae-9130-4997-8264-fbb8cedb035a"
       x1="199.53999"
       y1="325.92001"
       x2="358.70001"
       y2="325.92001"
       xlink:href="#de77dbfb-dd49-4fbc-923c-7946454dd32b" />
    <linearGradient
       id="41900377-e2ec-4e09-a282-5ca05bd60f31"
       x1="199.53999"
       y1="334.79999"
       x2="358.70001"
       y2="334.79999"
       xlink:href="#de77dbfb-dd49-4fbc-923c-7946454dd32b" />
    <linearGradient
       id="dd8a4518-18b3-4e66-a30f-5d540a356d99"
       x1="199.53999"
       y1="346.64001"
       x2="358.70001"
       y2="346.64001"
       xlink:href="#de77dbfb-dd49-4fbc-923c-7946454dd32b" />
    <linearGradient
       id="73297694-c0f6-49f7-84f0-ecf1ccd19cc8"
       x1="199.53999"
       y1="355.53"
       x2="291.32999"
       y2="355.53"
       xlink:href="#de77dbfb-dd49-4fbc-923c-7946454dd32b" />
    <linearGradient
       id="493ae8f5-00a4-414a-a514-466a18e555de"
       x1="199.53999"
       y1="367.34"
       x2="358.70001"
       y2="367.34"
       xlink:href="#de77dbfb-dd49-4fbc-923c-7946454dd32b" />
    <linearGradient
       id="3b1e923e-cefa-4350-8e60-09975381dcc2"
       x1="199.53999"
       y1="376.22"
       x2="358.70001"
       y2="376.22"
       xlink:href="#de77dbfb-dd49-4fbc-923c-7946454dd32b" />
    <linearGradient
       id="0a8186d7-b2d8-4c25-b395-9cdd58a3b32d"
       x1="199.53999"
       y1="388.07001"
       x2="358.70001"
       y2="388.07001"
       xlink:href="#de77dbfb-dd49-4fbc-923c-7946454dd32b" />
    <linearGradient
       id="80621535-6eff-45be-9aff-a177b1fc6ef5"
       x1="199.53999"
       y1="396.95001"
       x2="291.32999"
       y2="396.95001"
       xlink:href="#de77dbfb-dd49-4fbc-923c-7946454dd32b" />
    <linearGradient
       id="dadd1f9f-4435-4897-9b35-9a7b7fdf052b"
       x1="303.76001"
       y1="459.51001"
       x2="303.76001"
       y2="293.69"
       xlink:href="#de77dbfb-dd49-4fbc-923c-7946454dd32b" />
    <linearGradient
       id="f16d3271-277e-4f15-bb07-00d21db963c6"
       x1="216.09"
       y1="375.88"
       x2="391.67001"
       y2="375.88"
       xlink:href="#de77dbfb-dd49-4fbc-923c-7946454dd32b" />
    <linearGradient
       id="6844f77f-b831-40d5-baa2-4d635352d65d"
       x1="229.62"
       y1="334.95001"
       x2="259.23001"
       y2="334.95001"
       xlink:href="#de77dbfb-dd49-4fbc-923c-7946454dd32b" />
    <linearGradient
       id="de24e734-f614-4284-b96a-2aa86e10747c"
       x1="268.12"
       y1="323.10999"
       x2="385.82999"
       y2="323.10999"
       xlink:href="#de77dbfb-dd49-4fbc-923c-7946454dd32b" />
    <linearGradient
       id="a5efd049-cacb-4880-98c4-916efb717ead"
       x1="268.12"
       y1="331.98999"
       x2="385.82999"
       y2="331.98999"
       xlink:href="#de77dbfb-dd49-4fbc-923c-7946454dd32b" />
    <linearGradient
       id="7e130a40-8f7a-4850-a2d6-6e0275737139"
       x1="226.66"
       y1="364.23001"
       x2="385.82999"
       y2="364.23001"
       xlink:href="#de77dbfb-dd49-4fbc-923c-7946454dd32b" />
    <linearGradient
       id="2749f835-9066-4c26-94de-8091e8f0d23b"
       x1="226.66"
       y1="373.12"
       x2="385.82999"
       y2="373.12"
       xlink:href="#de77dbfb-dd49-4fbc-923c-7946454dd32b" />
    <linearGradient
       id="83d2a205-1aab-4c1f-9a0d-e371e1497593"
       x1="226.66"
       y1="384.95999"
       x2="385.82999"
       y2="384.95999"
       xlink:href="#de77dbfb-dd49-4fbc-923c-7946454dd32b" />
    <linearGradient
       id="eaa6c3f5-6275-43ae-b3c2-02cbd6aead80"
       x1="226.66"
       y1="393.84"
       x2="318.45001"
       y2="393.84"
       xlink:href="#de77dbfb-dd49-4fbc-923c-7946454dd32b" />
    <linearGradient
       id="e1588a1d-b1ef-45da-83e8-d054f8a4e057"
       x1="226.66"
       y1="405.66"
       x2="385.82999"
       y2="405.66"
       xlink:href="#de77dbfb-dd49-4fbc-923c-7946454dd32b" />
    <linearGradient
       id="34a60174-261b-4ce6-8479-6deff5e9df2e"
       x1="226.66"
       y1="414.54001"
       x2="385.82999"
       y2="414.54001"
       xlink:href="#de77dbfb-dd49-4fbc-923c-7946454dd32b" />
    <linearGradient
       id="b1d4060a-bab6-41d9-9d3f-50faf13ce905"
       x1="226.66"
       y1="426.39001"
       x2="385.82999"
       y2="426.39001"
       xlink:href="#de77dbfb-dd49-4fbc-923c-7946454dd32b" />
    <linearGradient
       id="001da48e-f69d-4ab6-b1e5-b6877c600ca3"
       x1="226.66"
       y1="435.26999"
       x2="318.45001"
       y2="435.26999"
       xlink:href="#de77dbfb-dd49-4fbc-923c-7946454dd32b" />
    <linearGradient
       id="a9c4be37-9b27-4af0-b082-7a197d7b08af"
       x1="396.26999"
       y1="498.10999"
       x2="396.26999"
       y2="315.14999"
       xlink:href="#de77dbfb-dd49-4fbc-923c-7946454dd32b" />
    <linearGradient
       id="1be8f728-2df0-4ca7-b72e-42c383ba6409"
       x1="323.20001"
       y1="406.07999"
       x2="470.82001"
       y2="406.07999"
       xlink:href="#de77dbfb-dd49-4fbc-923c-7946454dd32b" />
    <linearGradient
       id="2c239d92-4298-42ac-b5f5-112261fb3719"
       x1="630.01001"
       y1="435.54001"
       x2="630.01001"
       y2="409.41"
       xlink:href="#de77dbfb-dd49-4fbc-923c-7946454dd32b" />
    <linearGradient
       id="b25a2850-8713-435e-a7f6-77c24068e559"
       x1="379.34"
       y1="356.75"
       x2="414.67999"
       y2="356.75"
       xlink:href="#de77dbfb-dd49-4fbc-923c-7946454dd32b" />
    <linearGradient
       id="098fbc02-4549-4943-b845-c35e13d002ec"
       x1="389.64999"
       y1="345.34"
       x2="404.37"
       y2="345.34"
       xlink:href="#de77dbfb-dd49-4fbc-923c-7946454dd32b" />
    <linearGradient
       id="42d5ad37-1f95-4efe-a9d6-9d5a7598317f"
       x1="345.29001"
       y1="397.51001"
       x2="449.10001"
       y2="397.51001"
       xlink:href="#de77dbfb-dd49-4fbc-923c-7946454dd32b" />
    <linearGradient
       id="60652df1-b02f-405a-bafe-63f1323ca3b9"
       x1="345.29001"
       y1="426.59"
       x2="449.10001"
       y2="426.59"
       xlink:href="#de77dbfb-dd49-4fbc-923c-7946454dd32b" />
    <linearGradient
       id="d60c104b-effa-4916-ba15-d56398cc91aa"
       x1="345.29001"
       y1="434.32001"
       x2="449.10001"
       y2="434.32001"
       xlink:href="#de77dbfb-dd49-4fbc-923c-7946454dd32b" />
    <linearGradient
       id="ba8a67f6-dfe8-450d-b63e-7f0d0a91ef94"
       x1="345.29001"
       y1="418.85999"
       x2="389.10001"
       y2="418.85999"
       xlink:href="#de77dbfb-dd49-4fbc-923c-7946454dd32b" />
    <linearGradient
       id="78ba6fe6-ecca-4e26-a377-427f9aaa9d9c"
       x1="416.34"
       y1="418.85999"
       x2="449.10001"
       y2="418.85999"
       xlink:href="#de77dbfb-dd49-4fbc-923c-7946454dd32b" />
    <linearGradient
       id="1435728f-56d7-4408-a8a2-001738c99643"
       x1="381.73001"
       y1="452.35999"
       x2="414.5"
       y2="452.35999"
       xlink:href="#de77dbfb-dd49-4fbc-923c-7946454dd32b" />
    <linearGradient
       id="9b7fa617-5070-4448-ba88-12c8e3ef9a97"
       x1="124.23"
       y1="565.46997"
       x2="366.37"
       y2="565.46997"
       xlink:href="#de77dbfb-dd49-4fbc-923c-7946454dd32b" />
    <linearGradient
       id="070ec920-a668-4755-a0ad-3a8615a89315"
       x1="366.37"
       y1="565.46997"
       x2="608.5"
       y2="565.46997"
       xlink:href="#de77dbfb-dd49-4fbc-923c-7946454dd32b" />
    <linearGradient
       id="e36d19af-3b30-4690-9806-5999beea7781"
       x1="512.15002"
       y1="631.39001"
       x2="608.5"
       y2="631.39001"
       xlink:href="#de77dbfb-dd49-4fbc-923c-7946454dd32b" />
    <linearGradient
       id="a6dd6711-50c1-4fdb-98f5-9ce3faa6868a"
       x1="517.48999"
       y1="407.03"
       x2="517.48999"
       y2="338.42001"
       xlink:href="#de77dbfb-dd49-4fbc-923c-7946454dd32b" />
    <linearGradient
       id="c3285259-7532-4ca4-be71-649fbde17c17"
       x1="482.89999"
       y1="372.87"
       x2="552.07001"
       y2="372.87"
       xlink:href="#de77dbfb-dd49-4fbc-923c-7946454dd32b" />
    <linearGradient
       id="a29959c1-757f-4596-a472-135c84a27060"
       x1="750.48999"
       y1="435.85999"
       x2="750.48999"
       y2="415.97"
       xlink:href="#de77dbfb-dd49-4fbc-923c-7946454dd32b" />
    <linearGradient
       id="d4e4a16f-6e37-4db9-afc4-c764cb698323"
       x1="504.04001"
       y1="359.70999"
       x2="530.92999"
       y2="359.70999"
       xlink:href="#de77dbfb-dd49-4fbc-923c-7946454dd32b" />
    <linearGradient
       id="cff56feb-0464-47d9-bfaf-95cdd3d9140f"
       x1="511.89001"
       y1="351.03"
       x2="523.09003"
       y2="351.03"
       xlink:href="#de77dbfb-dd49-4fbc-923c-7946454dd32b" />
    <linearGradient
       id="03628828-f4ed-4a34-b456-49742169550b"
       x1="505.57999"
       y1="380.70999"
       x2="530.51001"
       y2="380.70999"
       xlink:href="#de77dbfb-dd49-4fbc-923c-7946454dd32b" />
    <linearGradient
       id="563972f9-7c15-4736-8e1d-5831e19f738d"
       x1="496.20001"
       y1="386.87"
       x2="538.77002"
       y2="386.87"
       xlink:href="#de77dbfb-dd49-4fbc-923c-7946454dd32b" />
    <linearGradient
       id="ac84c3f4-4913-47be-bf79-f44b0f4db4c8"
       x1="358.76001"
       y1="204.69"
       x2="358.76001"
       y2="128.69"
       xlink:href="#de77dbfb-dd49-4fbc-923c-7946454dd32b" />
    <linearGradient
       id="08e6e94c-7f78-4a4a-b5ca-eacc99124954"
       x1="313.57001"
       y1="166.78"
       x2="403.76001"
       y2="166.78"
       xlink:href="#de77dbfb-dd49-4fbc-923c-7946454dd32b" />
    <linearGradient
       id="5d8bf870-f7e1-4226-8bb2-e6c031939852"
       x1="313.57001"
       y1="138.3"
       x2="403.76001"
       y2="138.3"
       xlink:href="#de77dbfb-dd49-4fbc-923c-7946454dd32b" />
    <linearGradient
       id="ca57a38f-5e0b-4f9a-ad35-d20a6a3fb589"
       x1="320.76001"
       y1="157.17"
       x2="396.57001"
       y2="157.17"
       xlink:href="#de77dbfb-dd49-4fbc-923c-7946454dd32b" />
    <linearGradient
       id="1fd9aa29-bfa0-42ec-baa0-a47f4919731f"
       x1="320.76001"
       y1="170.73"
       x2="376.09"
       y2="170.73"
       xlink:href="#de77dbfb-dd49-4fbc-923c-7946454dd32b" />
    <linearGradient
       id="2b0d4ee5-bed4-41f8-93bf-55bbaa1359c2"
       x1="320.76001"
       y1="176.3"
       x2="356.69"
       y2="176.3"
       xlink:href="#de77dbfb-dd49-4fbc-923c-7946454dd32b" />
    <linearGradient
       id="ffea16a4-8b84-4b92-9000-f48bb1ea4454"
       x1="320.76001"
       y1="181.87"
       x2="368.19"
       y2="181.87"
       xlink:href="#de77dbfb-dd49-4fbc-923c-7946454dd32b" />
    <linearGradient
       id="bd2a8e8b-f3e8-4ae2-849a-acfa94ff2f68"
       x1="320.76001"
       y1="187.44"
       x2="376.09"
       y2="187.44"
       xlink:href="#de77dbfb-dd49-4fbc-923c-7946454dd32b" />
    <linearGradient
       id="f06efa35-a8e5-4b8b-afbe-7609fb33c535"
       x1="320.76001"
       y1="193.00999"
       x2="339.26001"
       y2="193.00999"
       xlink:href="#de77dbfb-dd49-4fbc-923c-7946454dd32b" />
    <linearGradient
       id="b384c48b-fa09-4d02-bdd3-cc00491ed01d"
       x1="505.85999"
       y1="279.95001"
       x2="505.85999"
       y2="185.75999"
       xlink:href="#de77dbfb-dd49-4fbc-923c-7946454dd32b" />
    <linearGradient
       id="5e00f217-30a6-42ff-b3ae-1a90f6b4187c"
       x1="449.85999"
       y1="232.96001"
       x2="561.64001"
       y2="232.96001"
       xlink:href="#de77dbfb-dd49-4fbc-923c-7946454dd32b" />
    <linearGradient
       id="dc2aebd1-2b83-4119-bcc5-a741f826754f"
       x1="449.85999"
       y1="197.67"
       x2="561.64001"
       y2="197.67"
       xlink:href="#de77dbfb-dd49-4fbc-923c-7946454dd32b" />
    <linearGradient
       id="93231171-c5fd-4b16-9e58-5bf8089a9216"
       x1="458.76001"
       y1="221.05"
       x2="552.72998"
       y2="221.05"
       xlink:href="#de77dbfb-dd49-4fbc-923c-7946454dd32b" />
    <linearGradient
       id="50b8a9d8-eeba-4f66-80ff-241f1361769d"
       x1="458.76001"
       y1="237.86"
       x2="527.34998"
       y2="237.86"
       xlink:href="#de77dbfb-dd49-4fbc-923c-7946454dd32b" />
    <linearGradient
       id="1c46a2fd-722a-4782-991f-2753aa584a85"
       x1="458.76001"
       y1="244.77"
       x2="503.29999"
       y2="244.77"
       xlink:href="#de77dbfb-dd49-4fbc-923c-7946454dd32b" />
    <linearGradient
       id="20746c70-8f38-4111-a8e7-6be16dcdc432"
       x1="458.76001"
       y1="251.67"
       x2="517.54999"
       y2="251.67"
       xlink:href="#de77dbfb-dd49-4fbc-923c-7946454dd32b" />
    <linearGradient
       id="ff2c3201-2e6a-4c49-9262-7d1610fa9938"
       x1="458.76001"
       y1="258.57001"
       x2="527.34998"
       y2="258.57001"
       xlink:href="#de77dbfb-dd49-4fbc-923c-7946454dd32b" />
    <linearGradient
       id="f77a8c52-f808-4319-bd14-9cea9a000094"
       x1="458.76001"
       y1="265.48001"
       x2="481.70001"
       y2="265.48001"
       xlink:href="#de77dbfb-dd49-4fbc-923c-7946454dd32b" />
    <linearGradient
       id="fc3b52e5-7958-4225-afa3-e6f186f3a800"
       x1="463.66"
       y1="220.94"
       x2="490.38"
       y2="220.94"
       xlink:href="#de77dbfb-dd49-4fbc-923c-7946454dd32b" />
    <linearGradient
       id="2b5a7ca0-2cf9-4df0-8cdd-e53d9708a5ec"
       x1="121.07"
       y1="472.92999"
       x2="365.73001"
       y2="472.92999"
       xlink:href="#de77dbfb-dd49-4fbc-923c-7946454dd32b" />
    <linearGradient
       id="90935925-bac4-44a4-bec6-4c83fa48424d"
       x1="365.73001"
       y1="472.92999"
       x2="610.40002"
       y2="472.92999"
       xlink:href="#de77dbfb-dd49-4fbc-923c-7946454dd32b" />
    <linearGradient
       id="f90ef38d-8fba-46a7-8e54-2d901dfd8f20"
       x1="0"
       y1="448.20999"
       x2="366.37"
       y2="448.20999"
       xlink:href="#de77dbfb-dd49-4fbc-923c-7946454dd32b" />
    <linearGradient
       id="7f322de3-7e3f-4ca5-a3a0-2f913675712e"
       x1="366.37"
       y1="448.20999"
       x2="734"
       y2="448.20999"
       xlink:href="#de77dbfb-dd49-4fbc-923c-7946454dd32b" />
    <linearGradient
       id="7e9b6443-5111-46ce-82ab-312f92c279a9"
       x1="279.92001"
       y1="417.64001"
       x2="279.92001"
       y2="253.24001"
       xlink:href="#de77dbfb-dd49-4fbc-923c-7946454dd32b" />
    <linearGradient
       id="0bd401ed-ef45-4e9e-bf5f-b77781a1e2b2"
       x1="306.82001"
       y1="455.63"
       x2="306.82001"
       y2="291.23001"
       xlink:href="#de77dbfb-dd49-4fbc-923c-7946454dd32b" />
    <linearGradient
       id="8c2d82fb-4f28-4e85-a5ca-7392731b2ba5"
       x1="398.54001"
       y1="493.89999"
       x2="398.54001"
       y2="312.51001"
       xlink:href="#de77dbfb-dd49-4fbc-923c-7946454dd32b" />
    <linearGradient
       id="5d661687-e38a-43c0-8ba0-d38908ccc19f"
       x1="632.27002"
       y1="432.45001"
       x2="632.27002"
       y2="406.53"
       xlink:href="#de77dbfb-dd49-4fbc-923c-7946454dd32b" />
    <linearGradient
       id="e62c516b-7ef4-49fd-a0a5-f3f48af03dcb"
       x1="518.71002"
       y1="403.60001"
       x2="518.71002"
       y2="335.57999"
       xlink:href="#de77dbfb-dd49-4fbc-923c-7946454dd32b"
       gradientTransform="translate(-609.73748,693.62516)" />
    <linearGradient
       id="6e0711fe-dd5e-4be2-836c-3534ecd56ee9"
       x1="751.71002"
       y1="432.76001"
       x2="751.71002"
       y2="413.04999"
       xlink:href="#de77dbfb-dd49-4fbc-923c-7946454dd32b" />
    <linearGradient
       id="c910eb88-40c3-4f47-be10-2fca2f669ad6"
       x1="450.84"
       y1="68.019997"
       x2="450.84"
       y2="0"
       xlink:href="#de77dbfb-dd49-4fbc-923c-7946454dd32b"
       gradientTransform="translate(-609.73748,693.62516)" />
    <linearGradient
       id="81ab2f40-7513-4f79-907c-194f7c944fd5"
       x1="683.84003"
       y1="97.18"
       x2="683.84003"
       y2="77.470001"
       xlink:href="#de77dbfb-dd49-4fbc-923c-7946454dd32b" />
    <linearGradient
       id="ced5db71-211d-4559-8944-028d2e60ece5"
       x1="361.34"
       y1="202.99001"
       x2="361.34"
       y2="127.64"
       xlink:href="#de77dbfb-dd49-4fbc-923c-7946454dd32b" />
    <linearGradient
       id="4adf524d-df88-48e8-970a-1ad7028c73c0"
       x1="507.17999"
       y1="277.60999"
       x2="507.17999"
       y2="184.22"
       xlink:href="#de77dbfb-dd49-4fbc-923c-7946454dd32b" />
    <linearGradient
       id="b5b2e68b-c285-4ac0-b26c-c5e680cf112d"
       x1="194"
       y1="524"
       x2="194"
       gradientUnits="userSpaceOnUse">
      <stop
         offset="0"
         stop-color="gray"
         stop-opacity="0.25"
         id="stop2171" />
      <stop
         offset="0.54"
         stop-color="gray"
         stop-opacity="0.12"
         id="stop2173" />
      <stop
         offset="1"
         stop-color="gray"
         stop-opacity="0.1"
         id="stop2175" />
    </linearGradient>
    <linearGradient
       id="3e855d09-ea58-4275-8d16-3996ecf7bf97"
       x1="256.5"
       y1="341"
       x2="256.5"
       y2="261"
       xlink:href="#b5b2e68b-c285-4ac0-b26c-c5e680cf112d" />
    <linearGradient
       id="cf2af733-ecbd-4844-bce5-a175ed323afb"
       x1="698.40997"
       y1="686.90997"
       x2="698.40997"
       y2="411"
       xlink:href="#b5b2e68b-c285-4ac0-b26c-c5e680cf112d" />
    <linearGradient
       id="41d3ff72-5c81-40b1-a081-9da170d960ca"
       x1="521"
       y1="592.5"
       x2="564"
       y2="592.5"
       xlink:href="#b5b2e68b-c285-4ac0-b26c-c5e680cf112d" />
    <linearGradient
       id="861d31c1-c685-4668-90c5-63e7f330b62f"
       x1="864"
       y1="667"
       x2="864"
       y2="506"
       xlink:href="#b5b2e68b-c285-4ac0-b26c-c5e680cf112d" />
    <linearGradient
       id="95aca10b-5f5c-4c4a-b42d-5e0345d77cda"
       x1="587"
       y1="666"
       x2="587"
       y2="505"
       xlink:href="#b5b2e68b-c285-4ac0-b26c-c5e680cf112d" />
    <linearGradient
       id="447533d7-1588-4f38-833a-a610814ab16b"
       x1="818.5"
       y1="672"
       x2="818.5"
       y2="507"
       xlink:href="#b5b2e68b-c285-4ac0-b26c-c5e680cf112d" />
    <linearGradient
       id="ff2ef3d2-e251-4fff-9ce5-91d443983582"
       x1="692.5"
       y1="520"
       x2="692.5"
       y2="503"
       xlink:href="#b5b2e68b-c285-4ac0-b26c-c5e680cf112d" />
    <linearGradient
       id="3aee67b7-7918-445b-a8b6-3ab74317d2c0"
       x1="696.5"
       y1="492"
       x2="696.5"
       y2="407"
       xlink:href="#b5b2e68b-c285-4ac0-b26c-c5e680cf112d" />
    <linearGradient
       id="6f730dc9-6dcb-4b79-bb23-db206ebc09d2"
       x1="696.5"
       y1="503"
       x2="696.5"
       y2="482"
       xlink:href="#b5b2e68b-c285-4ac0-b26c-c5e680cf112d" />
    <linearGradient
       id="fad0dffe-d445-4baa-a242-e8cd9004e0b5"
       x1="695"
       y1="448"
       x2="695"
       y2="438"
       xlink:href="#b5b2e68b-c285-4ac0-b26c-c5e680cf112d" />
    <linearGradient
       inkscape:collect="always"
       xlink:href="#linearGradient1636"
       id="linearGradient1638"
       x1="-195.5014"
       y1="1067.2561"
       x2="-151.4841"
       y2="1242.6166"
       gradientUnits="userSpaceOnUse"
       gradientTransform="matrix(0.72275066,0,0,0.72275066,-67.327006,316.04266)" />
    <linearGradient
       inkscape:collect="always"
       id="linearGradient1636">
      <stop
         style="stop-color:#2b5d88;stop-opacity:1;"
         offset="0"
         id="stop1632" />
      <stop
         style="stop-color:#2b5a88;stop-opacity:1"
         offset="1"
         id="stop1634" />
    </linearGradient>
  </defs>
  <sodipodi:namedview
     pagecolor="#ffffff"
     bordercolor="#666666"
     borderopacity="1"
     objecttolerance="10"
     gridtolerance="10"
     guidetolerance="10"
     inkscape:pageopacity="0"
     inkscape:pageshadow="2"
     inkscape:window-width="1366"
     inkscape:window-height="720"
     id="namedview69"
     showgrid="false"
     inkscape:snap-global="false"
     inkscape:zoom="1.2770998"
     inkscape:cx="223.31154"
     inkscape:cy="109.73059"
     inkscape:window-x="0"
     inkscape:window-y="19"
     inkscape:window-maximized="1"
     inkscape:current-layer="g1534"
     inkscape:document-rotation="0"
     fit-margin-top="0"
     fit-margin-left="0"
     fit-margin-right="0"
     fit-margin-bottom="0"
     scale-x="1.3" />
  <g
     id="g2981"
     transform="matrix(1.9228821,0,0,1.9228821,672.68394,-1969.2418)"
     style="fill:#2b0000">
    <g
       id="g374"
       transform="matrix(3.9399068,0,0,3.9399068,-1332.8683,-1454.4694)"
       inkscape:export-xdpi="96"
       inkscape:export-ydpi="96"
       style="display:inline;fill:#1a1a1a">
      <g
         id="g317"
         transform="translate(54.911793,-6.1629416)"
         style="fill:#1a1a1a">
        <g
           id="layer1-6"
           transform="matrix(0.05090144,0,0,0.05090144,237.2315,600.38006)"
           style="fill:#1a1a1a">
          <g
             id="g1791"
             transform="matrix(0.65897773,0,0,0.65897773,-698.14967,574.4746)"
             style="fill:#1a1a1a">
            <g
               id="g10"
               transform="matrix(-0.66740974,-0.24012234,-0.24012234,0.66740974,657.39327,909.27144)"
               style="fill:#1a1a1a">
              <g
                 style="fill:#1a1a1a;fill-opacity:1;stroke-linejoin:miter"
                 id="g4">
                <path
                   d="m 597.19977,577.205 v 0 c 0.13037,82.94313 -67.00293,150.28755 -149.94629,150.41774 v 0 C 364.31015,727.7528 296.96582,660.61957 296.8357,577.6765 v 0 c -0.13013,-82.94298 67.00305,-150.28713 149.94625,-150.41738 v 0 C 529.7251,427.1289 597.0696,494.26178 597.19977,577.205 v 0 m -45.27582,0.0711 v 0 C 551.833,519.3379 504.79126,472.44385 446.853,472.5348 v 0 c -57.93808,0.0909 -104.8324,47.1326 -104.74152,105.07067 v 0 c 0.0909,57.93803 47.13278,104.83227 105.07092,104.74143 v 0 C 505.12073,682.256 552.015,635.2141 551.92395,577.27606 Z"
                   id="path2-7"
                   style="fill:#1a1a1a" />
              </g>
              <g
                 style="fill:#1a1a1a;fill-opacity:1;stroke-linejoin:miter"
                 id="g8">
                <path
                   d="m 585.9719,715.8409 v 0 c -14.42576,14.48344 -31.1115,26.7315 -49.49717,36.1695 l -22.27618,-43.39474 c 13.80165,-7.08496 26.35135,-16.29242 37.21319,-27.19751 z m -138.46873,57.7188 v 0 c -0.0659,2e-4 -0.13097,3e-4 -0.17757,3.6e-4 v 0 h -1e-4 v 0 c -21.04733,0.0328 -41.37045,-3.25946 -60.44665,-9.39966 l 14.94537,-46.43225 c 14.28128,4.59675 29.53815,7.07831 45.42458,7.05345 v 0 h 1.3e-4 v 0 c -0.0464,10e-5 0.18515,-4e-4 0.11923,-2e-4 z M 308.736,716.5128 v 0 c -14.49622,-14.41405 -26.7581,-31.08903 -36.21177,-49.46617 l 43.37557,-22.31329 c 7.09666,13.79526 16.31468,26.33722 27.2294,37.19 z M 250.89899,578.08923 v 0 c -4e-4,-0.10998 -7.1e-4,-0.23073 -8.6e-4,-0.34083 v 0 c -0.033,-20.9878 3.24072,-41.2563 9.34767,-60.28575 l 46.44518,14.90505 c -4.57196,14.24656 -7.03946,29.4625 -7.01462,45.3042 v 0 c 1.8e-4,0.11 2.1e-4,0.1432 5.8e-4,0.2533 z M 307.8271,439.2783 v 0 c 14.4019,-14.50865 31.06737,-26.785 49.43538,-36.25367 l 22.35042,43.35623 c -13.7887,7.10809 -26.32356,16.33724 -37.16728,27.26114 z M 446.201,381.32327 v 0 c 0.15224,-5.7e-4 0.35958,-10e-4 0.50863,-10e-4 v 0 c 20.92827,-0.033 41.14273,3.22223 60.12545,9.29602 l -14.86505,46.45801 c -14.21106,-4.547 -29.38699,-7.00077 -45.18381,-6.97589 v 0 c -0.12512,1.8e-4 -0.2604,5.8e-4 -0.3822,10e-4 z m 138.8602,56.80903 v 0 c 14.5214,14.39 26.8119,31.04495 36.29616,49.40444 l -43.33722,22.38776 c -7.11987,-13.7824 -16.35964,-26.3097 -27.29358,-37.14447 z m 58.07393,138.3263 v 0 c 9.7e-4,0.2159 0.002,0.4534 0.002,0.6741 v 0 c 0.0331,21.1059 -3.27764,41.485 -9.45074,60.6071 L 587.2669,622.75415 c 4.62127,-14.31549 7.11688,-29.6142 7.09173,-45.54485 v 0 c -2.4e-4,-0.1632 -8e-4,-0.3456 -0.002,-0.5135 z"
                   id="path6-3"
                   style="fill:#1a1a1a" />
              </g>
            </g>
            <g
               id="g20"
               style="fill:#1a1a1a">
              <g
                 style="fill:#1a1a1a;fill-opacity:1;stroke-linejoin:miter"
                 id="g14">
                <path
                   d="m 403.49255,817.8618 v 0 c 32.61637,76.26137 -2.76475,164.5245 -79.02612,197.1408 v 0 c -76.26117,32.6161 -164.52382,-2.7651 -197.13995,-79.0264 v 0 c -32.61614,-76.26136 2.76504,-164.5238 79.02603,-197.14045 v 0 c 76.26126,-32.61621 164.52369,2.76475 197.14004,79.02605 v 0 m -41.6282,17.80415 v 0 C 339.0808,782.39526 277.42715,757.6806 224.15659,780.4642 v 0 c -53.27044,22.7833 -77.98523,84.4371 -55.20192,137.70755 v 0 c 22.78335,53.27095 84.43711,77.98555 137.70759,55.20209 v 0 c 53.27078,-22.78324 77.98538,-84.43734 55.20209,-137.70789 z"
                   id="path12-6"
                   style="fill:#1a1a1a" />
              </g>
              <g
                 style="fill:#1a1a1a;fill-opacity:1;stroke-linejoin:miter"
                 id="g18">
                <path
                   d="m 447.4787,949.81384 v 0 c -7.59802,18.9776 -18.15106,36.78376 -31.369,52.67076 l -37.49706,-31.1982 c 9.92242,-11.9259 17.86136,-25.3143 23.58231,-39.6029 z M 342.69376,1057.1692 v 0 c -0.0606,0.026 -0.12043,0.052 -0.16324,0.07 v 0 l -6e-5,3e-4 v 0 c -19.35178,8.2762 -39.33991,13.2099 -59.29656,15.0344 l -4.4414,-48.576 c 14.94056,-1.3657 29.94987,-5.0603 44.5565,-11.3074 v 0 h 1.2e-4 v 0 c -0.0427,0.018 0.1702,-0.073 0.10962,-0.047 z m -150.02346,1.8818 v 0 c -18.98465,-7.5824 -36.7994,-18.1205 -52.69723,-31.3243 l 31.16566,-37.52376 c 11.93416,9.91196 25.32917,17.83996 39.62327,23.54886 z M 85.22393,954.35345 v 0 C 85.1805,954.25244 85.1329,954.1415 85.089645,954.0403 v 0 C 76.83649,934.74335 71.907394,914.8123 70.070496,894.91156 l 48.571724,-4.48352 c 1.37524,14.89911 5.06643,29.86536 11.29597,44.43091 v 0 c 0.0433,0.10119 0.0564,0.13175 0.0998,0.23285 z M 83.21585,804.3356 v 0 c 7.56611,-18.9913 18.08942,-36.8159 31.27915,-52.72397 l 37.55032,31.13361 c -9.90142,11.94236 -17.81836,25.34442 -23.51517,39.64361 z M 187.8207,696.8 v 0 c 0.13984,-0.0603 0.33038,-0.142 0.4674,-0.20063 v 0 c 19.24226,-8.22987 39.11601,-13.15473 58.96074,-15.00377 l 4.52536,48.56785 c -14.85648,1.38425 -29.78049,5.07251 -44.30476,11.2843 v 0 c -0.11501,0.0494 -0.23931,0.10265 -0.35117,0.151 z m 150.01618,-2.13685 v 0 c 18.99826,7.55025 36.83136,18.05835 52.75058,31.23419 l -31.10131,37.57721 C 347.53564,753.5835 334.1265,745.6776 319.8219,739.99286 Z m 107.62619,104.51532 v 0 c 0.0855,0.19813 0.1792,0.41623 0.26599,0.61923 v 0 c 8.2996,19.4055 13.23784,39.4524 15.05011,59.4644 l -48.57962,4.39934 c -1.35672,-14.98169 -5.05471,-30.0351 -11.3193,-44.68254 v 0 c -0.0642,-0.15 -0.13615,-0.31765 -0.20258,-0.4718 z"
                   id="path16-7"
                   style="fill:#1a1a1a" />
              </g>
            </g>
            <g
               id="g1774"
               transform="matrix(-0.50980143,-0.04032881,-0.04032881,0.50980143,703.62013,823.22308)"
               style="fill:#1a1a1a">
              <g
                 style="fill:#1a1a1a;fill-opacity:1;stroke-linejoin:miter"
                 id="g1768">
                <path
                   d="m 597.19977,577.205 v 0 c 0.13037,82.94313 -67.00293,150.28755 -149.94629,150.41774 v 0 C 364.31015,727.7528 296.96582,660.61957 296.8357,577.6765 v 0 c -0.13013,-82.94298 67.00305,-150.28713 149.94625,-150.41738 v 0 C 529.7251,427.1289 597.0696,494.26178 597.19977,577.205 v 0 m -45.27582,0.0711 v 0 C 551.833,519.3379 504.79126,472.44385 446.853,472.5348 v 0 c -57.93808,0.0909 -104.8324,47.1326 -104.74152,105.07067 v 0 c 0.0909,57.93803 47.13278,104.83227 105.07092,104.74143 v 0 C 505.12073,682.256 552.015,635.2141 551.92395,577.27606 Z"
                   id="path1766"
                   style="fill:#1a1a1a" />
              </g>
              <g
                 style="fill:#1a1a1a;fill-opacity:1;stroke-linejoin:miter"
                 id="g1772">
                <path
                   d="m 585.9719,715.8409 v 0 c -14.42576,14.48344 -31.1115,26.7315 -49.49717,36.1695 l -22.27618,-43.39474 c 13.80165,-7.08496 26.35135,-16.29242 37.21319,-27.19751 z m -138.46873,57.7188 v 0 c -0.0659,2e-4 -0.13097,3e-4 -0.17757,3.6e-4 v 0 h -1e-4 v 0 c -21.04733,0.0328 -41.37045,-3.25946 -60.44665,-9.39966 l 14.94537,-46.43225 c 14.28128,4.59675 29.53815,7.07831 45.42458,7.05345 v 0 h 1.3e-4 v 0 c -0.0464,10e-5 0.18515,-4e-4 0.11923,-2e-4 z M 308.736,716.5128 v 0 c -14.49622,-14.41405 -26.7581,-31.08903 -36.21177,-49.46617 l 43.37557,-22.31329 c 7.09666,13.79526 16.31468,26.33722 27.2294,37.19 z M 250.89899,578.08923 v 0 c -4e-4,-0.10998 -7.1e-4,-0.23073 -8.6e-4,-0.34083 v 0 c -0.033,-20.9878 3.24072,-41.2563 9.34767,-60.28575 l 46.44518,14.90505 c -4.57196,14.24656 -7.03946,29.4625 -7.01462,45.3042 v 0 c 1.8e-4,0.11 2.1e-4,0.1432 5.8e-4,0.2533 z M 307.8271,439.2783 v 0 c 14.4019,-14.50865 31.06737,-26.785 49.43538,-36.25367 l 22.35042,43.35623 c -13.7887,7.10809 -26.32356,16.33724 -37.16728,27.26114 z M 446.201,381.32327 v 0 c 0.15224,-5.7e-4 0.35958,-10e-4 0.50863,-10e-4 v 0 c 20.92827,-0.033 41.14273,3.22223 60.12545,9.29602 l -14.86505,46.45801 c -14.21106,-4.547 -29.38699,-7.00077 -45.18381,-6.97589 v 0 c -0.12512,1.8e-4 -0.2604,5.8e-4 -0.3822,10e-4 z m 138.8602,56.80903 v 0 c 14.5214,14.39 26.8119,31.04495 36.29616,49.40444 l -43.33722,22.38776 c -7.11987,-13.7824 -16.35964,-26.3097 -27.29358,-37.14447 z m 58.07393,138.3263 v 0 c 9.7e-4,0.2159 0.002,0.4534 0.002,0.6741 v 0 c 0.0331,21.1059 -3.27764,41.485 -9.45074,60.6071 L 587.2669,622.75415 c 4.62127,-14.31549 7.11688,-29.6142 7.09173,-45.54485 v 0 c -2.4e-4,-0.1632 -8e-4,-0.3456 -0.002,-0.5135 z"
                   id="path1770"
                   style="fill:#1a1a1a" />
              </g>
            </g>
          </g>
        </g>
        <g
           id="g271"
           style="fill:#1a1a1a">
          <path
             id="path1235"
             style="fill:#1a1a1a;fill-opacity:1;stroke:none;stroke-width:3.19283;stroke-linecap:round;stroke-miterlimit:4;stroke-dasharray:none;stroke-dashoffset:35.5654;stroke-opacity:1;paint-order:fill markers stroke"
             d="m 202.76424,649.97658 -7.15771,12.99456 7.15771,12.99456 h 15.49828 l 7.1577,-12.99456 -7.1577,-12.99456 z m 0.65004,1.08923 h 14.19871 l 6.55766,11.90533 -6.55766,11.9053 h -14.19871 l -6.55767,-11.9053 z"
             sodipodi:nodetypes="cccccccccccccc" />
        </g>
      </g>
    </g>
    <g
       id="g352"
       transform="matrix(3.9399068,0,0,3.9399068,-1220.2307,-1536.5092)"
       inkscape:export-xdpi="96"
       inkscape:export-ydpi="96"
       style="display:inline;fill:#1a1a1a">
      <g
         id="g1199"
         transform="matrix(0.72068054,0,0,0.72068054,465.09956,136.72679)"
         style="stroke:#ffffff;stroke-width:0.138758;stroke-miterlimit:4;stroke-dasharray:none;fill:#1a1a1a">
        <g
           id="g1211"
           transform="matrix(0.12732255,0,0,0.12732255,-246.72741,671.94109)"
           style="fill:#1a1a1a;stroke:#ffffff;stroke-width:1.08981;stroke-miterlimit:4;stroke-dasharray:none">
          <path
             id="path1125"
             style="fill:#1a1a1a;stroke:#ffffff;stroke-width:4.11898;stroke-miterlimit:4;stroke-dasharray:none"
             d="m -1076.0879,1360.9121 c -15.0095,-0.052 -29.8516,1.8664 -45.709,5.8359 -63.0193,15.7754 -114.0635,65.2063 -132.0996,127.9258 -5.4391,18.9145 -6.9842,30.8094 -6.8847,53.041 0.095,21.1987 1.8094,34.0292 6.8808,51.5 5.7052,19.6543 18.6745,45.1554 29.6484,58.2969 26.6185,31.8761 35.7357,51.406 44.3868,95.0781 4.3512,21.9654 6.417,28.8554 11.9941,39.9961 5.9147,11.8153 16.0741,22.893 24.8008,27.045 10.3645,4.9313 27.4776,8.5658 47.3515,10.0566 27.6927,2.0774 63.255,-2.1087 79.7032,-9.3828 7.0039,-3.0975 17.47143,-12.8836 20.74216,-19.3906 1.29903,-2.5844 2.63508,-4.9241 2.97071,-5.1993 1.0874,-0.8906 3.96141,-7 3.29296,-7 -0.35648,0 -0.14578,-0.6036 0.4668,-1.3418 0.61262,-0.7381 0.81716,-1.6379 0.45508,-2 -0.36193,-0.3617 -0.10576,-0.6582 0.56836,-0.6582 0.67302,0 0.96674,-0.4176 0.65039,-0.9296 -0.31642,-0.512 -0.0887,-1.2331 0.50781,-1.6016 0.59777,-0.3687 0.84893,-1.2854 0.56055,-2.0371 -0.28838,-0.7518 -0.14597,-1.601 0.3164,-1.8867 1.05423,-0.6516 2.75354,-10.1434 4.05079,-22.6368 2.08006,-20.0324 9.41094,-37.9388 25.22656,-61.6074 5.06774,-7.584 10.19648,-14.9167 11.39648,-16.2949 22.50641,-25.8485 35.60862,-48.274 44.71289,-76.5312 6.09328,-18.912 7.78236,-28.9027 8.39454,-49.6719 0.64685,-21.9458 -0.43622,-32.6125 -5.2129,-51.3321 -19.00531,-74.4811 -81.45648,-128.8529 -158.49018,-137.9882 -7.002,-0.8304 -13.8592,-1.2615 -20.6817,-1.2852 z m -1.1445,22.3262 c 17.9243,-0.068 35.7988,2.6569 52.539,8.1406 52.4177,17.1707 94.07263,61.5901 107.79496,114.9453 4.13352,16.0719 5.00518,23.257 5.02344,41.5528 0.0151,14.3476 -0.36995,19.3117 -2.19531,28.3457 -3.85943,19.1015 -10.40689,36.6727 -20.52344,55.0781 -4.62712,8.4182 -7.71266,12.7368 -22.22461,31.0859 -23.23476,29.5554 -38.05566,56.4354 -41.94336,89.3848 -0.79393,6.9092 -2.15798,14.9548 -3.03128,17.8769 -2.7395,9.1673 -8.0191,18.398 -13.8613,24.2403 -4.819,4.8189 -6.5349,5.8422 -13.5019,8.0429 -4.3899,1.3868 -11.751,3.2146 -16.3594,4.0625 -5.5381,1.0192 -15.4243,1.6387 -29.1563,1.8243 -22.265,0.3008 -23.9054,0.2127 -37.2031,-1.9825 -20.5923,-3.3995 -28.4075,-7.5226 -36.4746,-19.2421 -6.7668,-9.8306 -10.114,-19.5627 -14.8574,-43.2051 -8.2367,-41.053 -18.5359,-64.4652 -39.3496,-89.4571 -19.1601,-23.0061 -30.1488,-46.1921 -36.0704,-76.0996 -2.1554,-10.8868 -2.474,-46.4396 -0.5117,-57.0117 6.0561,-32.6252 18.1134,-58.4525 38.1094,-81.6308 20.7134,-24.0101 51.098,-42.709 82.3906,-50.7051 13.4924,-3.4476 27.4651,-5.193 41.4063,-5.2461 z"
             transform="matrix(0.26458333,0,0,0.26458333,-1.7880857,346.3225)" />
          <path
             id="rect1130"
             style="opacity:1;fill:#1a1a1a;fill-opacity:1;stroke:#ffffff;stroke-width:1.08981;stroke-miterlimit:4;stroke-dasharray:none;stroke-dashoffset:35.5654;paint-order:stroke fill markers"
             d="m -301.28289,832.47766 h 29.52207 c 1.83038,0 3.30393,0.90805 3.30393,2.03599 0,1.12794 -1.47355,2.03599 -3.30393,2.03599 h -29.52207 c -1.83038,0 -3.30393,-0.90805 -3.30393,-2.03599 0,-1.12794 1.47355,-2.03599 3.30393,-2.03599 z" />
          <path
             id="rect1136"
             style="opacity:1;fill:#1a1a1a;fill-opacity:1;stroke:#ffffff;stroke-width:1.08981;stroke-miterlimit:4;stroke-dasharray:none;stroke-dashoffset:35.5654;paint-order:stroke fill markers"
             d="m -300.34231,840.27551 h 27.64089 c 1.83038,0 3.30393,0.99976 3.30393,2.24162 0,1.24185 -1.47355,2.24162 -3.30393,2.24162 h -27.64089 c -1.83038,0 -3.30393,-0.99977 -3.30393,-2.24162 0,-1.24186 1.47355,-2.24162 3.30393,-2.24162 z" />
          <path
             id="rect1138"
             style="opacity:1;fill:#1a1a1a;fill-opacity:1;stroke:#ffffff;stroke-width:1.08981;stroke-miterlimit:4;stroke-dasharray:none;stroke-dashoffset:35.5654;paint-order:stroke fill markers"
             d="m -292.03726,847.46814 h 11.15154 c 1.83037,0 3.30393,0.96997 3.30393,2.17482 0,1.20485 -1.47356,2.17481 -3.30393,2.17481 h -11.15154 c -1.83037,0 -3.30393,-0.96996 -3.30393,-2.17481 0,-1.20485 1.47356,-2.17482 3.30393,-2.17482 z" />
          <path
             id="path1172"
             style="color:#000000;font-style:normal;font-variant:normal;font-weight:normal;font-stretch:normal;font-size:medium;line-height:normal;font-family:sans-serif;font-variant-ligatures:normal;font-variant-position:normal;font-variant-caps:normal;font-variant-numeric:normal;font-variant-alternates:normal;font-variant-east-asian:normal;font-feature-settings:normal;font-variation-settings:normal;text-indent:0;text-align:start;text-decoration:none;text-decoration-line:none;text-decoration-style:solid;text-decoration-color:#000000;letter-spacing:normal;word-spacing:normal;text-transform:none;writing-mode:lr-tb;direction:ltr;text-orientation:mixed;dominant-baseline:auto;baseline-shift:baseline;text-anchor:start;white-space:normal;shape-padding:0;shape-margin:0;inline-size:0;clip-rule:nonzero;display:inline;overflow:visible;visibility:visible;opacity:1;isolation:auto;mix-blend-mode:normal;color-interpolation:sRGB;color-interpolation-filters:linearRGB;solid-color:#000000;solid-opacity:1;vector-effect:none;fill:#1a1a1a;fill-opacity:1;fill-rule:nonzero;stroke:#ffffff;stroke-width:4.11898;stroke-linecap:butt;stroke-linejoin:miter;stroke-miterlimit:4;stroke-dasharray:none;stroke-dashoffset:35.5654;stroke-opacity:1;paint-order:stroke fill markers;color-rendering:auto;image-rendering:auto;shape-rendering:auto;text-rendering:auto;enable-background:accumulate;stop-color:#000000;stop-opacity:1"
             d="m -1053.5898,1406.1992 c -3.0146,-0.023 -6.0388,0.1174 -9.0664,0.3965 0,0 0,0 0,0 -0.2876,0.011 -0.5759,0.039 -0.8613,0.076 -0.1146,0.011 -0.2273,0.018 -0.3418,0.029 v 0.023 c -4.4039,0.7559 -7.6227,4.5727 -7.623,9.041 10e-5,5.0673 4.1065,9.1757 9.1738,9.1758 0.019,10e-5 0.041,10e-5 0.061,0 v 0 c 0.015,0 0.027,0 0.041,0 0,-2e-4 0,3e-4 0.01,0 0.4493,0 0.8981,-0.044 1.3418,-0.1152 30.3825,-2.6288 60.4251,13.8406 81.58982,36.8789 6.07895,6.6171 11.20732,13.9654 15.35156,21.8125 l -0.041,0.018 c 2.90638,5.7943 5.12154,11.905 6.50391,18.291 0.0631,0.4449 0.15822,0.8879 0.2871,1.3183 8.4e-4,0 -2.2e-4,0 0,0.01 0.008,0.011 0.008,0.021 0.0117,0.039 h 0.004 c 0.004,0.019 0.0118,0.033 0.0156,0.057 1.49503,4.8417 6.63285,7.5534 11.47461,6.0586 4.26936,-1.3187 6.96769,-5.5202 6.39063,-9.9512 h 0.0234 c -0.0227,-0.113 -0.0477,-0.2229 -0.0723,-0.3359 -0.0491,-0.2835 -0.10989,-0.5658 -0.18359,-0.8438 v 0 c -0.62654,-2.9753 -1.38387,-5.9075 -2.29493,-8.7813 h -0.002 c -0.79709,-2.5164 -1.70968,-4.9882 -2.71094,-7.4219 -0.01,-0.1961 -0.0127,-0.3309 -0.0234,-0.5352 -5.32037,-11.7465 -12.48073,-22.6773 -21.33594,-32.3164 -22.84653,-24.8689 -54.71303,-42.6758 -87.72063,-42.916 z"
             transform="matrix(0.26458333,0,0,0.26458333,-1.7880857,346.3225)" />
          <path
             id="circle1176"
             style="opacity:1;fill:#1a1a1a;fill-opacity:1;stroke:#ffffff;stroke-width:1.08981;stroke-miterlimit:4;stroke-dasharray:none;stroke-dashoffset:35.5654;paint-order:stroke fill markers"
             d="m -286.47855,721.80951 a 3.0873406,3.0873406 0 0 1 -3.08734,3.08734 3.0873406,3.0873406 0 0 1 -3.08734,-3.08734 3.0873406,3.0873406 0 0 1 3.08734,-3.08734 3.0873406,3.0873406 0 0 1 3.08734,3.08734 z" />
        </g>
      </g>
      <path
         id="rect1245"
         style="display:inline;fill:#1a1a1a;fill-opacity:1;stroke:#ffffff;stroke-width:0.0724308;stroke-miterlimit:4;stroke-dasharray:none;stroke-dashoffset:35.5654;paint-order:stroke fill markers"
         d="m 260.9935,682.88022 a 0.29465389,0.35619682 0 0 0 -0.29473,0.3563 v 0.018 0.6198 0.37423 0.61984 0.0179 a 0.29465389,0.35619682 0 0 0 0.29473,0.35631 0.31803976,0.38446719 0 0 0 0.3014,-0.37422 0.31803976,0.38446719 0 0 0 0,-0.0291 v -0.59077 -0.96495 a 0.31803976,0.38446719 0 0 0 0,-0.0291 0.31803976,0.38446719 0 0 0 -0.3014,-0.37426 z" />
      <g
         id="g1290"
         transform="translate(35.087282,13.656697)"
         style="display:inline;fill:#1a1a1a">
        <path
           id="path1266"
           style="fill:#1a1a1a;fill-opacity:1;stroke:#ffffff;stroke-width:0.0724308;stroke-miterlimit:4;stroke-dasharray:none;stroke-dashoffset:35.5654;paint-order:stroke fill markers"
           d="m 219.88076,671.38757 a 0.35619682,0.29465389 35.792511 0 1 0.46138,-0.0307 l 0.0146,0.0105 0.50274,0.36249 0.30355,0.21888 0.50278,0.36251 0.0145,0.0104 a 0.35619682,0.29465389 35.792511 0 1 0.11667,0.44745 0.38446719,0.31803976 35.792511 0 1 -0.47982,0.0256 0.38446719,0.31803976 35.792511 0 1 -0.0236,-0.017 l -0.47919,-0.3455 -0.78271,-0.56436 a 0.38446719,0.31803976 35.792511 0 1 -0.0236,-0.017 0.38446719,0.31803976 35.792511 0 1 -0.12729,-0.46336 z" />
        <path
           id="path1270"
           style="fill:#1a1a1a;fill-opacity:1;stroke:#ffffff;stroke-width:0.0724308;stroke-miterlimit:4;stroke-dasharray:none;stroke-dashoffset:35.5654;paint-order:stroke fill markers"
           d="m 220.47373,676.46383 a 0.35619682,0.29465389 0 0 0 -0.3563,-0.29473 h -0.018 -0.6198 -0.37423 -0.61984 -0.0179 a 0.35619682,0.29465389 0 0 0 -0.35631,0.29473 0.38446719,0.31803976 0 0 0 0.37422,0.3014 0.38446719,0.31803976 0 0 0 0.0291,0 h 0.59077 0.96495 a 0.38446719,0.31803976 0 0 0 0.0291,0 0.38446719,0.31803976 0 0 0 0.37426,-0.3014 z" />
        <path
           id="path1276"
           style="fill:#1a1a1a;fill-opacity:1;stroke:#ffffff;stroke-width:0.0724308;stroke-miterlimit:4;stroke-dasharray:none;stroke-dashoffset:35.5654;paint-order:stroke fill markers"
           d="m 231.93858,671.38757 a 0.29465389,0.35619682 54.207489 0 0 -0.46138,-0.0307 l -0.0146,0.0105 -0.50274,0.36249 -0.30355,0.21888 -0.50278,0.36251 -0.0145,0.0104 a 0.29465389,0.35619682 54.207489 0 0 -0.11667,0.44745 0.31803976,0.38446719 54.207489 0 0 0.47982,0.0256 0.31803976,0.38446719 54.207489 0 0 0.0236,-0.017 l 0.47919,-0.3455 0.78271,-0.56436 a 0.31803976,0.38446719 54.207489 0 0 0.0236,-0.017 0.31803976,0.38446719 54.207489 0 0 0.12729,-0.46336 z" />
        <path
           id="path1278"
           style="fill:#1a1a1a;fill-opacity:1;stroke:#ffffff;stroke-width:0.0724308;stroke-miterlimit:4;stroke-dasharray:none;stroke-dashoffset:35.5654;paint-order:stroke fill markers"
           d="m 231.34561,676.46383 a 0.35619682,0.29465389 0 0 1 0.3563,-0.29473 h 0.018 0.6198 0.37423 0.61984 0.0179 a 0.35619682,0.29465389 0 0 1 0.35631,0.29473 0.38446719,0.31803976 0 0 1 -0.37422,0.3014 0.38446719,0.31803976 0 0 1 -0.0291,0 h -0.59077 -0.96495 a 0.38446719,0.31803976 0 0 1 -0.0291,0 0.38446719,0.31803976 0 0 1 -0.37426,-0.3014 z" />
      </g>
      <path
         id="path1224"
         style="fill:#1a1a1a;fill-opacity:1;stroke:none;stroke-width:3.19283;stroke-linecap:round;stroke-miterlimit:4;stroke-dasharray:none;stroke-dashoffset:35.5654;stroke-opacity:1;paint-order:fill markers stroke"
         d="m 252.86674,678.66751 -7.15771,12.99456 7.15771,12.99456 h 15.49828 l 7.1577,-12.99456 -7.1577,-12.99456 z m 0.65004,1.08923 h 14.19871 l 6.55766,11.90533 -6.55766,11.9053 h -14.19871 l -6.55767,-11.9053 z"
         sodipodi:nodetypes="cccccccccccccc" />
    </g>
    <g
       id="g326"
       transform="matrix(3.9399068,0,0,3.9399068,-1023.993,-1646.3223)"
       inkscape:export-xdpi="96"
       inkscape:export-ydpi="96"
       style="display:inline;fill:#2b0000">
      <g
         id="g1534"
         transform="matrix(0.90855189,0,0,0.90855189,51.994646,76.516488)"
         style="fill:none">
        <path
           d="m 185.8729,677.47473 c 0,-1.48366 -2.32068,-2.58089 -5.41046,-3.17187 0.25215,-0.72523 0.45956,-1.42733 0.60343,-2.08292 0.47876,-2.18859 0.24735,-3.67987 -0.6508,-4.19838 -0.22246,-0.12837 -0.47877,-0.19385 -0.76191,-0.19385 -1.22693,0 -2.93849,1.23673 -4.69569,3.27468 -1.75655,-2.03795 -3.46812,-3.27468 -4.69614,-3.27468 -0.28249,0 -0.53923,0.0656 -0.76212,0.19385 -1.28608,0.74226 -1.07367,3.30549 -0.0382,6.28022 -3.09415,0.58967 -5.4194,1.68777 -5.4194,3.17295 0,1.48432 2.32153,2.5809 5.41198,3.1723 -0.25346,0.72547 -0.46064,1.42691 -0.60407,2.08249 -0.47898,2.18903 -0.24801,3.6801 0.64969,4.19839 0.2229,0.12857 0.47963,0.19342 0.76212,0.19342 1.22802,0 2.93938,-1.23719 4.69614,-3.27425 1.75676,2.03706 3.46812,3.27468 4.69569,3.27468 0.28314,0 0.53967,-0.0653 0.76191,-0.19385 0.89815,-0.51829 1.12956,-2.00936 0.65057,-4.19839 -0.14364,-0.65558 -0.35104,-1.35702 -0.60384,-2.08249 3.09044,-0.59119 5.4111,-1.68798 5.4111,-3.1723 z m -6.21974,-9.0829 c 0.18294,0 0.34472,0.0409 0.48007,0.11854 0.65843,0.38009 0.79706,1.68822 0.3814,3.58907 -0.14432,0.65973 -0.35543,1.3675 -0.61434,2.10234 -0.90949,-0.15172 -1.87422,-0.26066 -2.85902,-0.32528 -0.56151,-0.84858 -1.13655,-1.62949 -1.71026,-2.32939 1.65502,-1.93448 3.26028,-3.15528 4.32215,-3.15528 z m -2.00804,10.63402 c -0.30018,0.51936 -0.60997,1.02258 -0.92608,1.50634 -0.56696,0.0288 -1.15422,0.045 -1.76157,0.045 -0.60735,0 -1.19504,-0.0162 -1.76114,-0.045 -0.31699,-0.48398 -0.62655,-0.98698 -0.92607,-1.50634 -0.30303,-0.52526 -0.58268,-1.04158 -0.8403,-1.54587 0.26285,-0.51719 0.54077,-1.03765 0.84073,-1.55659 0.29909,-0.51892 0.60909,-1.02169 0.92564,-1.50657 0.5661,-0.0287 1.15379,-0.0447 1.76114,-0.0447 0.60735,0 1.19482,0.0162 1.76157,0.0447 0.31611,0.4851 0.62568,0.98765 0.92542,1.50657 0.29909,0.51742 0.57635,1.03634 0.83876,1.55134 -0.26241,0.51566 -0.53946,1.03459 -0.8381,1.55112 z m 1.1481,-0.92238 c 0.34647,0.72109 0.65495,1.4317 0.91692,2.12201 -0.70952,0.11373 -1.47537,0.20216 -2.28966,0.26263 0.24102,-0.38205 0.47897,-0.77589 0.71279,-1.17976 0.23185,-0.40105 0.4495,-0.80361 0.65995,-1.20488 z m -2.4619,3.00836 c -0.45148,0.65908 -0.91299,1.278 -1.37385,1.84343 -0.46042,-0.56565 -0.92128,-1.18457 -1.37406,-1.84343 0.45736,0.0193 0.91604,0.0301 1.37406,0.0301 0.45824,-2.2e-4 0.91713,-0.0109 1.37385,-0.0301 z m -3.83641,-0.62372 c -0.81498,-0.0605 -1.58081,-0.1491 -2.2901,-0.26263 0.2624,-0.68922 0.57,-1.40026 0.91624,-2.12201 0.21177,0.40563 0.43205,0.80799 0.66062,1.20488 0.23382,0.40387 0.47177,0.79771 0.71324,1.17976 z m -1.37626,-3.63578 c -0.35716,-0.73987 -0.66497,-1.45245 -0.9226,-2.12659 0.71172,-0.11352 1.48039,-0.20325 2.29886,-0.2646 -0.24169,0.38227 -0.47965,0.77567 -0.71346,1.18043 -0.23293,0.40321 -0.45082,0.80796 -0.6628,1.21076 z m 2.46563,-3.01382 c 0.45191,-0.65908 0.91277,-1.27821 1.37319,-1.84452 0.46086,0.56631 0.92237,1.18544 1.37385,1.84452 -0.45693,-0.0199 -0.91561,-0.0306 -1.37385,-0.0306 -0.45802,2.1e-4 -0.9167,0.0107 -1.37319,0.0306 z m 4.54899,1.80306 c -0.23359,-0.40586 -0.47157,-0.79816 -0.71279,-1.18043 0.81429,0.0613 1.58014,0.14998 2.28966,0.26307 -0.26197,0.68921 -0.57045,1.40135 -0.91692,2.12243 -0.21045,-0.40125 -0.4281,-0.80404 -0.65995,-1.20507 z m -8.35134,-7.1312 c 0.13513,-0.0783 0.2969,-0.11854 0.4794,-0.11854 1.06189,0 2.66714,1.2208 4.3226,3.15528 -0.57329,0.6999 -1.14876,1.48081 -1.71026,2.32939 -0.98808,0.0647 -1.95652,0.17509 -2.8695,0.32747 -1.06668,-3.01142 -1.09943,-5.18754 -0.22224,-5.6936 z m -5.17599,8.96436 c 0,-1.01232 1.90085,-2.07245 5.04215,-2.65447 0.32465,0.86758 0.71346,1.76158 1.15205,2.65033 -0.44995,0.90381 -0.83898,1.79648 -1.16208,2.65621 -3.13586,-0.58159 -5.03212,-1.64084 -5.03212,-2.65207 z m 5.65539,9.0829 c -0.18512,0 -0.34143,-0.0388 -0.4794,-0.11743 -0.65822,-0.38032 -0.79729,-1.68845 -0.38118,-3.58951 0.14452,-0.65996 0.35497,-1.36861 0.61433,-2.103 0.90949,0.15194 1.87444,0.26087 2.85815,0.32549 0.56194,0.84815 1.13676,1.62906 1.71027,2.32962 -1.65483,1.93426 -3.26028,3.15483 -4.32217,3.15483 z m 10.25241,-3.70716 c 0.41633,1.90106 0.27771,3.2092 -0.38051,3.5895 -0.13602,0.0775 -0.29713,0.11766 -0.48007,0.11766 -1.06187,0 -2.66713,-1.2208 -4.32215,-3.15505 0.57371,-0.70056 1.14875,-1.48148 1.7109,-2.32961 0.98416,-0.0647 1.94889,-0.17356 2.85838,-0.3255 0.25891,0.73461 0.47002,1.44305 0.61345,2.103 z m -0.23708,-2.72345 c -0.32223,-0.85863 -0.71039,-1.74957 -1.15924,-2.65207 0.44885,-0.90272 0.83701,-1.79387 1.15968,-2.65206 3.13519,0.5818 5.03189,1.64149 5.03189,2.65206 0,1.01101 -1.8967,2.07026 -5.03233,2.65207 z"
           id="path2-5"
           style="display:inline;opacity:1;fill:#1a1a1a;stroke-width:0.218313" />
        <circle
           cx="174.9575"
           cy="677.47473"
           r="1.4530917"
           id="circle4"
           style="display:inline;opacity:1;fill:#1a1a1a;stroke-width:0.264583" />
      </g>
      <path
         id="path1530"
         style="fill:#1a1a1a;fill-opacity:1;stroke:none;stroke-width:3.19283;stroke-linecap:round;stroke-miterlimit:4;stroke-dasharray:none;stroke-dashoffset:35.5654;stroke-opacity:1;paint-order:fill markers stroke"
         d="m 202.76433,678.66727 -7.15771,12.99456 7.15771,12.99456 h 15.49828 l 7.1577,-12.99456 -7.1577,-12.99456 z m 0.65004,1.08923 h 14.19871 l 6.55766,11.90533 -6.55766,11.9053 h -14.19871 l -6.55767,-11.9053 z"
         sodipodi:nodetypes="cccccccccccccc" />
    </g>
  </g>
</svg>
